<?xml version="1.0" encoding="UTF-8" standalone="no"?><!DOCTYPE svg PUBLIC "-//W3C//DTD SVG 1.1//EN" "http://www.w3.org/Graphics/SVG/1.1/DTD/svg11.dtd"><svg width="100%" height="100%" viewBox="0 0 428 354" version="1.1" xmlns="http://www.w3.org/2000/svg" xmlns:xlink="http://www.w3.org/1999/xlink" xml:space="preserve" xmlns:serif="http://www.serif.com/" style="fill-rule:evenodd;clip-rule:evenodd;stroke-linejoin:round;stroke-miterlimit:2;"><path d="M118.954,-0l271.412,-0c20.744,-0 37.586,16.598 37.586,37.041c-0,5.799 -1.355,11.288 -3.77,16.177c-0.093,0.187 -0.187,0.374 -0.282,0.56l-23.404,46.382c-6.629,10.539 -18.473,17.564 -31.969,17.564l-188.349,0c-0.673,-0.048 -1.351,-0.079 -2.033,-0.092c-0.244,-0.004 -0.489,-0.007 -0.735,-0.007c-0.93,0 -1.853,0.034 -2.767,0.099c-13.209,0.95 -24.533,8.639 -30.441,19.59c-0.319,0.592 -0.623,1.192 -0.909,1.802l-21.269,42.15c-0.236,0.456 -0.467,0.914 -0.694,1.375c-2.289,4.785 -3.569,10.129 -3.569,15.766c-0,8.649 3.014,16.61 8.063,22.917c6.885,8.6 17.554,14.125 29.522,14.125l58.693,-0l-0,1.583l0.799,-1.583l63.236,-0c17.774,2.936 31.337,18.184 31.337,36.53c0,5.678 -1.299,11.06 -3.62,15.871c-0.193,0.391 -0.389,0.781 -0.589,1.169l-22.507,44.604c-6.341,11.633 -18.806,19.55 -33.133,19.55l-129.598,-0c-9.232,-0 -17.69,-3.287 -24.236,-8.738c-8.162,-6.797 -13.35,-16.958 -13.35,-28.303c0,-5.792 1.352,-11.274 3.761,-16.158c0.099,-0.2 0.2,-0.399 0.301,-0.598l4.089,-8.104c0.905,-1.512 1.705,-3.092 2.388,-4.732c1.806,-4.333 2.802,-9.078 2.802,-14.05c0,-8.684 -3.038,-16.673 -8.123,-22.992c-6.888,-8.557 -17.529,-14.049 -29.462,-14.049l-20.548,-0c-20.744,-0 -37.586,-16.598 -37.586,-37.042c-0,-5.628 1.276,-10.965 3.559,-15.744c0.234,-0.476 0.473,-0.949 0.716,-1.419l81.971,-162.451c2.421,-4.203 5.651,-7.894 9.482,-10.867c6.395,-4.963 14.463,-7.926 23.226,-7.926Z"/></svg>